<?xml version="1.0" encoding="UTF-8"?>
<svg id="cwc-colour" xmlns="http://www.w3.org/2000/svg" xmlns:xlink="http://www.w3.org/1999/xlink" viewBox="0 0 400 190">
  <defs>
    <style>
      .cls-1 {
        fill: url(#linear-gradient);
      }

      .cls-2 {
        fill: #5e3916;
      }
    </style>
    <linearGradient id="linear-gradient" x1="200.197" y1="25.74" x2="200.197" y2="178.811" gradientUnits="userSpaceOnUse">
      <stop offset=".036" stop-color="#ffe100"/>
      <stop offset=".341" stop-color="#fd0"/>
      <stop offset=".606" stop-color="#ffd200"/>
      <stop offset=".855" stop-color="#ffc100"/>
      <stop offset="1" stop-color="#ffb300"/>
    </linearGradient>
  </defs>
  <path id="tail_tip" data-name="tail tip" class="cls-2" d="m311.096,40.341l-22.02,18.73h-15.35v-14.05h-14.05v-15.45c6.63-10.72,11.94-19.34,13.48-21.82l37.94,32.59Z"/>
  <path id="cwc" class="cls-1" d="m383.086,141.461l8.02,22.03c-4.89,4.32-10.46,7.84-16.52,10.39-7.1,2.99-14.86,4.64-23,4.64-.23,0-.46,0-.69-.01-6.67-.07-13.08-1.25-19.06-3.37-23.93-8.45-41.12-31.84-41.12-59.37s17.19-50.92,41.12-59.37c5.98-2.12,12.39-3.3,19.06-3.37.23-.01.46-.01.69-.01,8.14,0,15.9,1.65,23,4.64,6.06,2.55,11.63,6.07,16.52,10.39l-8.02,22.03c-4.12-5.48-9.5-9.86-15.69-12.65-2.73-1.23-5.61-2.15-8.61-2.72-2.34-.45-4.74-.68-7.2-.68-4.39,0-8.61.74-12.57,2.12-15.91,5.5-27.42,21.18-27.42,39.62s11.51,34.12,27.42,39.62c3.96,1.38,8.18,2.12,12.57,2.12,2.46,0,4.86-.23,7.2-.68,3-.57,5.88-1.49,8.61-2.72,6.19-2.79,11.57-7.17,15.69-12.65Zm-103.29-42.331c-2.76-2.18-19.85-15.28-19.85-15.28l29.13-24.78h-15.35v-14.05h-14.05v-15.45c-13.18,21.35-33.78,54.7-35.91,58.15,4.49,3.24,18.29,13.75,26.63,19.77l-17.24,52.44-22.51-69.76h-32.43l-19.5,69.76-19.51-69.76h-19.94l24.75,88.64h29.39l21.03-75.18,24.02,75.18h29.4l31.94-79.68Zm-173.62-9.049c7.625-24.956-6.008-49.33-25.587-59.048-27-13.402-49.755,2.87-49.755,2.87,10.723,1.793,17.439,7.53,22.05,14.902-9.697-4.077-28.512-5.968-43.595,9.087,0,0,15.834-3.74,30.517,6.342-15.41,11.37-25.999,30.497-25.999,51.537,0,27.53,17.19,50.92,41.12,59.37,5.98,2.12,12.39,3.3,19.06,3.37.23.01.46.01.69.01,8.14,0,15.9-1.65,23-4.64,6.06-2.55,11.63-6.07,16.52-10.39l-8.02-22.03c-4.12,5.48-9.5,9.86-15.69,12.65-2.73,1.23-5.61,2.15-8.61,2.72-2.34.45-4.74.68-7.2.68-4.39,0-8.61-.74-12.57-2.12-15.91-5.5-27.42-21.18-27.42-39.62s11.51-34.12,27.42-39.62c3.96-1.38,8.18-2.12,12.57-2.12,2.46,0,4.86.23,7.2.68,3,.57,5.88,1.49,8.61,2.72,6.19,2.79,11.57,7.17,15.69,12.65Z"/>
</svg>