<?xml version="1.0" encoding="utf-8"?>
<!-- Generator: Adobe Illustrator 27.7.0, SVG Export Plug-In . SVG Version: 6.00 Build 0)  -->
<svg version="1.1" id="Layer_1" xmlns="http://www.w3.org/2000/svg" xmlns:xlink="http://www.w3.org/1999/xlink" x="0px" y="0px"
	 viewBox="0 0 128 128" style="enable-background:new 0 0 128 128;" xml:space="preserve">
<style type="text/css">
	.st0{fill:#CC1E68;}
</style>
<path class="st0" d="M64,43c11.6,0,21,9.4,21,21s-9.4,21-21,21s-21-9.4-21-21S52.4,43,64,43z M90.4,92.7C83.5,99.1,74.2,103,64,103
	c-21.5,0-39-17.5-39-39s17.5-39,39-39c10.2,0,19.5,3.9,26.4,10.3l16.9-18.4C95.9,6.4,80.7,0,64,0C28.7,0,0,28.7,0,64s28.7,64,64,64
	c16.7,0,31.9-6.4,43.3-16.9L90.4,92.7z M96.1,52.1L124,41.7c-1.7-4.7-4-9.1-6.7-13.2L92.5,45C94,47.2,95.2,49.6,96.1,52.1z M92.5,83
	l24.8,16.5c2.7-4.1,5-8.5,6.7-13.2L96.1,75.9C95.2,78.4,94,80.8,92.5,83z M127.6,56.6L98,60c0.1,1.3,0.2,2.6,0.2,4s-0.1,2.7-0.2,4
	l29.6,3.4c0.3-2.4,0.4-4.9,0.4-7.4S127.8,59,127.6,56.6z"/>
</svg>
