<?xml version="1.0" encoding="UTF-8"?>
<svg id="opencwc_white" data-name="opencwc white" xmlns="http://www.w3.org/2000/svg" viewBox="0 0 850 230">
  <defs>
    <style>
      .cls-1 {
        fill: #fff;
      }
    </style>
  </defs>
  <path id="subtitle" class="cls-1" d="m215.012,221.912h-5.337v-20.29h-6.835v-4.348h19.006v4.348h-6.835v20.29Zm38.385,0h-5.32v-10.634h-9.968v10.634h-5.337v-24.638h5.337v9.656h9.968v-9.656h5.32v24.638Zm27.9,0h-14.496v-24.638h14.496v4.28h-9.159v5.41h8.522v4.28h-8.522v6.353h9.159v4.314Zm35.847-24.638c2.284,0,4.169.27,5.655.809,1.486.539,2.591,1.354,3.314,2.444s1.085,2.466,1.085,4.129c0,1.123-.218,2.107-.654,2.949-.436.843-1.01,1.556-1.722,2.14-.712.584-1.481,1.062-2.307,1.432l7.403,10.735h-5.922l-6.008-9.454h-2.841v9.454h-5.337v-24.638h7.334Zm-.379,4.28h-1.618v6.657h1.722c1.767,0,3.033-.289,3.796-.867.763-.579,1.145-1.43,1.145-2.554,0-1.169-.411-1.999-1.231-2.494-.821-.495-2.092-.742-3.813-.742Zm37.868,20.358h-14.496v-24.638h14.496v4.28h-9.159v5.41h8.522v4.28h-8.522v6.353h9.159v4.314Zm32.049-24.638l-8.556,24.638h-5.819l-8.539-24.638h5.389l4.734,14.661c.08.247.212.711.396,1.39.183.68.37,1.4.56,2.157.189.759.318,1.385.387,1.88.069-.495.192-1.118.37-1.871.178-.752.355-1.469.534-2.148.178-.68.307-1.149.387-1.408l4.769-14.661h5.389Zm33.065,12.285c0,1.898-.241,3.626-.723,5.182-.482,1.556-1.213,2.897-2.196,4.02-.98,1.123-2.224,1.986-3.727,2.586-1.504.602-3.283.902-5.337.902s-3.834-.3-5.337-.902c-1.504-.601-2.746-1.463-3.727-2.586-.982-1.123-1.713-2.466-2.196-4.028s-.723-3.297-.723-5.207c0-2.551.427-4.772,1.283-6.665.854-1.893,2.172-3.363,3.951-4.407,1.778-1.045,4.04-1.567,6.783-1.567s4.978.522,6.741,1.567c1.761,1.045,3.07,2.517,3.925,4.415.855,1.898,1.282,4.129,1.282,6.69Zm-18.369,0c0,1.719.221,3.199.663,4.44.442,1.242,1.132,2.197,2.074,2.865.941.669,2.157,1.003,3.65,1.003,1.515,0,2.742-.334,3.684-1.003.941-.668,1.626-1.623,2.058-2.865.429-1.241.645-2.721.645-4.44,0-2.584-.493-4.618-1.481-6.101s-2.612-2.225-4.872-2.225c-1.504,0-2.728.334-3.676,1.002-.946.669-1.641,1.624-2.082,2.865-.443,1.242-.663,2.728-.663,4.458Zm30.637,12.353v-24.638h5.337v20.324h10.209v4.314h-15.546Zm47.457-24.638v15.942c0,1.696-.382,3.228-1.144,4.592-.764,1.366-1.917,2.447-3.461,3.245-1.543.798-3.486,1.197-5.827,1.197-3.329,0-5.865-.832-7.609-2.494s-2.617-3.865-2.617-6.606v-15.875h5.32v15.083c0,2.033.424,3.461,1.274,4.28s2.106,1.23,3.77,1.23c1.171,0,2.121-.196,2.85-.59.728-.394,1.265-1,1.609-1.82s.516-1.865.516-3.135v-15.049h5.32Zm22.926,24.638h-5.337v-20.29h-6.835v-4.348h19.006v4.348h-6.835v20.29Zm17.76,0v-24.638h5.337v24.638h-5.337Zm41.569-12.353c0,1.898-.241,3.626-.723,5.182-.482,1.556-1.214,2.897-2.195,4.02-.982,1.123-2.224,1.986-3.728,2.586-1.504.602-3.282.902-5.337.902s-3.833-.3-5.337-.902c-1.504-.601-2.745-1.463-3.728-2.586-.98-1.123-1.712-2.466-2.195-4.028s-.723-3.297-.723-5.207c0-2.551.427-4.772,1.283-6.665.855-1.893,2.171-3.363,3.951-4.407s4.04-1.567,6.783-1.567,4.978.522,6.74,1.567c1.762,1.045,3.071,2.517,3.925,4.415.856,1.898,1.283,4.129,1.283,6.69Zm-18.369,0c0,1.719.221,3.199.662,4.44.443,1.242,1.134,2.197,2.075,2.865.941.669,2.158,1.003,3.65,1.003,1.515,0,2.743-.334,3.684-1.003.941-.668,1.627-1.623,2.057-2.865.431-1.241.646-2.721.646-4.44,0-2.584-.493-4.618-1.481-6.101s-2.611-2.225-4.872-2.225c-1.504,0-2.729.334-3.675,1.002-.948.669-1.642,1.624-2.084,2.865-.442,1.242-.662,2.728-.662,4.458Zm52.966,12.353h-6.783l-10.949-18.639h-.155c.046.775.086,1.556.121,2.342s.069,1.57.103,2.35c.034.781.069,1.565.103,2.351v11.594h-4.769v-24.638h6.731l10.932,18.453h.121c-.023-.764-.052-1.523-.086-2.275s-.066-1.506-.095-2.258c-.028-.752-.054-1.506-.077-2.258v-11.662h4.803v24.638Zm52.443-12.353c0,1.898-.241,3.626-.723,5.182-.482,1.556-1.214,2.897-2.195,4.02-.982,1.123-2.224,1.986-3.728,2.586-1.504.602-3.282.902-5.337.902s-3.833-.3-5.337-.902c-1.504-.601-2.745-1.463-3.728-2.586-.98-1.123-1.712-2.466-2.195-4.028s-.723-3.297-.723-5.207c0-2.551.427-4.772,1.283-6.665.855-1.893,2.171-3.363,3.951-4.407s4.04-1.567,6.783-1.567,4.978.522,6.74,1.567c1.762,1.045,3.071,2.517,3.925,4.415.856,1.898,1.283,4.129,1.283,6.69Zm-18.369,0c0,1.719.221,3.199.662,4.44.443,1.242,1.134,2.197,2.075,2.865.941.669,2.158,1.003,3.65,1.003,1.515,0,2.743-.334,3.684-1.003.941-.668,1.627-1.623,2.057-2.865.431-1.241.646-2.721.646-4.44,0-2.584-.493-4.618-1.481-6.101s-2.611-2.225-4.872-2.225c-1.504,0-2.729.334-3.675,1.002-.948.669-1.642,1.624-2.084,2.865-.442,1.242-.662,2.728-.662,4.458Zm35.889,12.353h-5.251v-24.638h14.427v4.28h-9.176v6.353h8.539v4.264h-8.539v9.741Zm48.053-20.644c-1.022,0-1.925.193-2.711.582-.787.387-1.446.946-1.981,1.676-.533.731-.938,1.612-1.213,2.646s-.413,2.197-.413,3.488c0,1.742.221,3.227.662,4.458.443,1.229,1.128,2.168,2.058,2.813.93.646,2.129.97,3.598.97,1.022,0,2.046-.112,3.074-.337,1.027-.225,2.143-.545,3.348-.961v4.382c-1.113.449-2.21.772-3.288.969-1.079.197-2.29.295-3.633.295-2.594,0-4.725-.525-6.396-1.576-1.669-1.05-2.906-2.522-3.71-4.415-.803-1.892-1.205-4.103-1.205-6.631,0-1.865.258-3.573.775-5.123s1.274-2.893,2.273-4.028,2.232-2.011,3.701-2.629,3.157-.927,5.061-.927c1.251,0,2.504.155,3.762.463,1.256.309,2.459.734,3.606,1.273l-1.722,4.247c-.941-.438-1.888-.82-2.841-1.146s-1.888-.489-2.806-.489Zm39.452,20.644h-5.32v-10.634h-9.968v10.634h-5.337v-24.638h5.337v9.656h9.968v-9.656h5.32v24.638Zm20.738-24.638c2.284,0,4.169.27,5.655.809,1.487.539,2.592,1.354,3.315,2.444s1.085,2.466,1.085,4.129c0,1.123-.218,2.107-.654,2.949s-1.01,1.556-1.722,2.14-1.481,1.062-2.307,1.432l7.403,10.735h-5.922l-6.008-9.454h-2.841v9.454h-5.337v-24.638h7.334Zm-.379,4.28h-1.618v6.657h1.722c1.767,0,3.033-.289,3.796-.867.764-.579,1.145-1.43,1.145-2.554,0-1.169-.41-1.999-1.23-2.494-.821-.495-2.092-.742-3.814-.742Zm23.373,20.358v-24.638h5.337v24.638h-5.337Zm33.581-6.842c0,1.46-.362,2.73-1.085,3.809s-1.776,1.91-3.16,2.494c-1.382.584-3.061.876-5.035.876-.872,0-1.725-.057-2.556-.169-.832-.112-1.63-.278-2.394-.498-.763-.218-1.489-.491-2.177-.817v-4.853c1.194.516,2.434.983,3.719,1.399s2.559.624,3.822.624c.872,0,1.576-.112,2.108-.337.535-.225.922-.533,1.163-.927s.362-.843.362-1.348c0-.618-.213-1.146-.637-1.584s-1.007-.849-1.748-1.23c-.739-.382-1.575-.792-2.504-1.23-.585-.27-1.222-.598-1.911-.986-.689-.387-1.343-.861-1.963-1.424s-1.128-1.244-1.523-2.048c-.397-.803-.594-1.767-.594-2.89,0-1.472.344-2.73,1.033-3.775s1.673-1.845,2.952-2.402c1.28-.555,2.792-.834,4.537-.834,1.308,0,2.556.149,3.745.447,1.187.297,2.429.727,3.727,1.289l-1.722,4.061c-1.16-.461-2.198-.818-3.116-1.07-.919-.254-1.853-.38-2.806-.38-.665,0-1.233.104-1.704.312-.471.207-.826.5-1.067.876-.241.376-.362.811-.362,1.306,0,.584.175,1.076.525,1.474.35.399.879.784,1.584,1.155.707.371,1.587.803,2.643,1.298,1.285.596,2.384,1.216,3.297,1.862.911.646,1.615,1.405,2.108,2.276.493.87.74,1.952.74,3.244Z"/>
  <path id="cwc" class="cls-1" d="m556.174,141.461c-4.12,5.48-9.5,9.86-15.69,12.65-2.73,1.23-5.61,2.15-8.61,2.72-2.34.45-4.74.68-7.2.68-4.39,0-8.61-.74-12.57-2.12-15.91-5.5-27.42-21.18-27.42-39.62s11.51-34.12,27.42-39.62c3.96-1.38,8.18-2.12,12.57-2.12,2.46,0,4.86.23,7.2.68,3,.57,5.88,1.49,8.61,2.72,6.19,2.79,11.57,7.17,15.69,12.65,7.63-24.95-6.01-49.33-25.58-59.05-27-13.4-49.76,2.87-49.76,2.87,10.72,1.8,17.44,7.53,22.05,14.91-9.7-4.08-28.51-5.97-43.6,9.08,0,0,15.84-3.74,30.52,6.34-15.41,11.37-26,30.5-26,51.54,0,27.53,17.19,50.92,41.12,59.37,5.98,2.12,12.39,3.3,19.06,3.37.23.01.46.01.69.01,8.14,0,15.9-1.65,23-4.64,6.06-2.55,11.63-6.07,16.52-10.39l-8.02-22.03Zm175.85-76.39h-14.3v-14.05h-14.05v-11.73c-12.67,20.51-28.08,45.47-29.91,48.43,4.49,3.24,18.29,13.75,26.63,19.77l-17.24,52.44-22.51-69.76h-32.43l-19.5,69.76-19.51-69.76h-19.94l24.75,88.64h29.39l21.03-75.18,24.02,75.18h29.4l31.94-79.68c-2.76-2.18-19.85-15.28-19.85-15.28l22.08-18.78Zm85.37,89.04c-2.73,1.23-5.61,2.15-8.61,2.72-2.34.45-4.74.68-7.2.68-4.39,0-8.61-.74-12.57-2.12-15.91-5.5-27.42-21.18-27.42-39.62s11.51-34.12,27.42-39.62c3.96-1.38,8.18-2.12,12.57-2.12,2.46,0,4.86.23,7.2.68,3,.57,5.88,1.49,8.61,2.72,6.19,2.79,11.57,7.17,15.69,12.65l8.02-22.03c-4.89-4.32-10.46-7.84-16.52-10.39-7.1-2.99-14.86-4.64-23-4.64-.23,0-.46,0-.69.01-6.67.07-13.08,1.25-19.06,3.37-23.93,8.45-41.12,31.84-41.12,59.37s17.19,50.92,41.12,59.37c5.98,2.12,12.39,3.3,19.06,3.37.23.01.46.01.69.01,8.14,0,15.9-1.65,23-4.64,6.06-2.55,11.63-6.07,16.52-10.39l-8.02-22.03c-4.12,5.48-9.5,9.86-15.69,12.65Zm-56.298-113.77l-22.02,18.73h-15.35v-14.05h-14.05v-15.45c6.63-10.72,11.94-19.34,13.48-21.82l37.94,32.59Z"/>
  <path id="open" class="cls-1" d="m412.481,82.997c10.008,0,18.06,2.726,24.155,8.177,6.094,5.452,9.143,14.188,9.143,26.209v61.142h-25.582v-54.768c0-6.71-1.216-11.77-3.648-15.181-2.432-3.41-6.249-5.116-11.448-5.116-7.829,0-13.168,2.656-16.02,7.968-2.852,5.312-4.277,12.973-4.277,22.98v44.116h-25.581v-93.768h19.542l3.438,11.994h1.426c2.013-3.242,4.515-5.871,7.506-7.884,2.991-2.013,6.318-3.494,9.981-4.445,3.661-.95,7.45-1.426,11.364-1.426Zm-116.077,0c8.666,0,16.13,1.664,22.394,4.99,6.261,3.327,11.098,8.15,14.509,14.468,3.41,6.319,5.116,14.035,5.116,23.148v12.413h-60.471c.279,7.213,2.445,12.874,6.5,16.984,4.053,4.109,9.687,6.164,16.9,6.164,5.982,0,11.461-.614,16.438-1.845,4.976-1.229,10.092-3.075,15.349-5.536v19.794c-4.642,2.293-9.492,3.971-14.552,5.032-5.061,1.062-11.197,1.594-18.41,1.594-9.394,0-17.711-1.732-24.952-5.2-7.242-3.467-12.916-8.75-17.025-15.852-4.11-7.101-6.165-16.047-6.165-26.839,0-10.958,1.858-20.087,5.577-27.384,3.718-7.297,8.903-12.776,15.558-16.439,6.653-3.661,14.397-5.493,23.232-5.493Zm.167,18.2c-4.977,0-9.1,1.594-12.371,4.781-3.271,3.187-5.158,8.192-5.662,15.013h35.897c-.057-3.802-.742-7.185-2.055-10.148-1.314-2.963-3.271-5.312-5.871-7.045-2.6-1.732-5.913-2.6-9.939-2.6Zm-95.361-18.2c10.568,0,19.108,4.109,25.623,12.329,6.513,8.22,9.771,20.27,9.771,36.148,0,10.624-1.539,19.557-4.613,26.797-3.076,7.242-7.326,12.706-12.749,16.396-5.424,3.69-11.658,5.536-18.703,5.536-4.529,0-8.416-.574-11.658-1.72-3.243-1.146-6.011-2.628-8.303-4.445-2.293-1.816-4.277-3.76-5.955-5.829h-1.342c.447,2.237.782,4.529,1.006,6.878.223,2.349.335,4.641.335,6.877v40.285h-25.581V84.759h20.8l3.606,12.161h1.174c1.677-2.516,3.718-4.835,6.123-6.961,2.403-2.124,5.297-3.816,8.681-5.074,3.382-1.258,7.31-1.887,11.784-1.887Zm-8.219,20.464c-4.474,0-8.024.922-10.651,2.768-2.629,1.845-4.543,4.613-5.746,8.303-1.203,3.69-1.859,8.36-1.971,14.006v2.768c0,6.039.573,11.155,1.719,15.349,1.146,4.193,3.075,7.381,5.787,9.562,2.711,2.181,6.444,3.271,11.197,3.271,3.913,0,7.129-1.09,9.645-3.271s4.403-5.381,5.662-9.604c1.258-4.221,1.887-9.379,1.887-15.474,0-9.17-1.426-16.075-4.277-20.716-2.852-4.641-7.269-6.961-13.251-6.961Zm-67.348,13.587c0,9.45-1.174,18.047-3.522,25.79-2.349,7.745-5.913,14.413-10.694,20.004-4.78,5.592-10.833,9.884-18.158,12.874-7.326,2.99-15.992,4.487-26,4.487s-18.676-1.497-26-4.487c-7.326-2.99-13.377-7.282-18.158-12.874-4.781-5.591-8.345-12.272-10.693-20.046-2.349-7.771-3.523-16.409-3.523-25.916,0-12.692,2.083-23.749,6.249-33.171,4.165-9.421,10.581-16.732,19.249-21.933,8.666-5.2,19.681-7.8,33.045-7.8s24.252,2.6,32.835,7.8c8.583,5.2,14.957,12.526,19.123,21.975,4.165,9.45,6.249,20.548,6.249,33.296Zm-89.49,0c0,8.555,1.076,15.923,3.229,22.101,2.152,6.179,5.521,10.932,10.106,14.258,4.584,3.327,10.511,4.99,17.781,4.99,7.38,0,13.363-1.663,17.948-4.99,4.584-3.326,7.926-8.079,10.022-14.258,2.097-6.178,3.145-13.546,3.145-22.101,0-12.859-2.404-22.98-7.213-30.361-4.809-7.38-12.721-11.071-23.735-11.071-7.326,0-13.293,1.665-17.906,4.99-4.613,3.328-7.997,8.081-10.148,14.258-2.153,6.179-3.229,13.574-3.229,22.184Z"/>
</svg>