<?xml version="1.0" encoding="utf-8"?>
<!-- Generator: Adobe Illustrator 27.7.0, SVG Export Plug-In . SVG Version: 6.00 Build 0)  -->
<svg version="1.1" id="Layer_1" xmlns="http://www.w3.org/2000/svg" xmlns:xlink="http://www.w3.org/1999/xlink" x="0px" y="0px"
	 viewBox="0 0 16 16" style="enable-background:new 0 0 16 16;" xml:space="preserve">
<style type="text/css">
	.st0{display:none;fill-rule:evenodd;clip-rule:evenodd;}
	.st1{fill-rule:evenodd;clip-rule:evenodd;}
</style>
<path class="st0" d="M0,2c0-0.3,0.2-0.6,0.5-0.6h7C7.8,1.4,8,1.7,8,2S7.8,2.6,7.5,2.6h-7C0.2,2.6,0,2.4,0,2z M9,2
	c0-0.3,0.2-0.6,0.5-0.6h5C14.8,1.4,15,1.7,15,2s-0.2,0.6-0.5,0.6h-5C9.2,2.6,9,2.4,9,2z M0,4.4c0-0.3,0.2-0.6,0.5-0.6h3
	C3.8,3.8,4,4.1,4,4.4C4,4.7,3.8,5,3.5,5h-3C0.2,5,0,4.7,0,4.4z M5,4.4c0-0.3,0.2-0.6,0.5-0.6h5c0.3,0,0.5,0.3,0.5,0.6
	C11,4.7,10.8,5,10.5,5h-5C5.2,5,5,4.7,5,4.4z M12,4.4c0-0.3,0.2-0.6,0.5-0.6h3c0.3,0,0.5,0.3,0.5,0.6C16,4.7,15.8,5,15.5,5h-3
	C12.2,5,12,4.7,12,4.4z M0,6.8c0-0.3,0.2-0.6,0.5-0.6h6C6.8,6.2,7,6.5,7,6.8S6.8,7.4,6.5,7.4h-6C0.2,7.4,0,7.1,0,6.8z M8,6.8
	c0-0.3,0.2-0.6,0.5-0.6h5c0.3,0,0.5,0.3,0.5,0.6s-0.2,0.6-0.5,0.6h-5C8.2,7.4,8,7.1,8,6.8z M0,9.2c0-0.3,0.2-0.6,0.5-0.6h5
	C5.8,8.6,6,8.9,6,9.2c0,0.3-0.2,0.6-0.5,0.6h-5C0.2,9.8,0,9.5,0,9.2z M7,9.2c0-0.3,0.2-0.6,0.5-0.6h7c0.3,0,0.5,0.3,0.5,0.6
	c0,0.3-0.2,0.6-0.5,0.6h-7C7.2,9.8,7,9.5,7,9.2z M0,11.6C0,11.3,0.2,11,0.5,11h8C8.8,11,9,11.3,9,11.6c0,0.3-0.2,0.6-0.5,0.6h-8
	C0.2,12.2,0,11.9,0,11.6z M0,14c0-0.3,0.2-0.6,0.5-0.6h4C4.8,13.4,5,13.6,5,14c0,0.3-0.2,0.6-0.5,0.6h-4C0.2,14.6,0,14.3,0,14z"/>
<path class="st1" d="M7.5,2.5h-7C0.2,2.5,0,2.3,0,2v0c0-0.3,0.2-0.5,0.5-0.5h7C7.8,1.5,8,1.7,8,2v0C8,2.3,7.8,2.5,7.5,2.5z"/>
<path class="st1" d="M14.5,2.5h-5C9.2,2.5,9,2.3,9,2v0c0-0.3,0.2-0.5,0.5-0.5h5C14.8,1.5,15,1.7,15,2v0C15,2.3,14.8,2.5,14.5,2.5z"
	/>
<path class="st1" d="M3.5,5h-3C0.2,5,0,4.8,0,4.5v0C0,4.2,0.2,4,0.5,4h3C3.8,4,4,4.2,4,4.5v0C4,4.8,3.8,5,3.5,5z"/>
<path class="st1" d="M10.5,5h-5C5.2,5,5,4.8,5,4.5v0C5,4.2,5.2,4,5.5,4h5C10.8,4,11,4.2,11,4.5v0C11,4.8,10.8,5,10.5,5z"/>
<path class="st1" d="M15.5,5h-3C12.2,5,12,4.8,12,4.5v0C12,4.2,12.2,4,12.5,4h3C15.8,4,16,4.2,16,4.5v0C16,4.8,15.8,5,15.5,5z"/>
<path class="st1" d="M6.5,7.5h-6C0.2,7.5,0,7.3,0,7v0c0-0.3,0.2-0.5,0.5-0.5h6C6.8,6.5,7,6.7,7,7v0C7,7.3,6.8,7.5,6.5,7.5z"/>
<path class="st1" d="M13.5,7.5h-5C8.2,7.5,8,7.3,8,7v0c0-0.3,0.2-0.5,0.5-0.5h5C13.8,6.5,14,6.7,14,7v0C14,7.3,13.8,7.5,13.5,7.5z"
	/>
<path class="st1" d="M5.5,10h-5C0.2,10,0,9.8,0,9.5v0C0,9.2,0.2,9,0.5,9h5C5.8,9,6,9.2,6,9.5v0C6,9.8,5.8,10,5.5,10z"/>
<path class="st1" d="M14.5,10h-7C7.2,10,7,9.8,7,9.5v0C7,9.2,7.2,9,7.5,9h7C14.8,9,15,9.2,15,9.5v0C15,9.8,14.8,10,14.5,10z"/>
<path class="st1" d="M8.5,12.5h-8C0.2,12.5,0,12.3,0,12v0c0-0.3,0.2-0.5,0.5-0.5h8C8.8,11.5,9,11.7,9,12v0C9,12.3,8.8,12.5,8.5,12.5
	z"/>
<path class="st1" d="M4.5,15h-4C0.2,15,0,14.8,0,14.5v0C0,14.2,0.2,14,0.5,14h4C4.8,14,5,14.2,5,14.5v0C5,14.8,4.8,15,4.5,15z"/>
</svg>
